<?xml version="1.0" standalone="no"?>
<!DOCTYPE svg PUBLIC "-//W3C//DTD SVG 20010904//EN"
 "http://www.w3.org/TR/2001/REC-SVG-20010904/DTD/svg10.dtd">
<svg version="1.0" xmlns="http://www.w3.org/2000/svg"
 width="169.000000pt" height="163.000000pt" viewBox="0 0 169.000000 163.000000"
 preserveAspectRatio="xMidYMid meet">

<g transform="translate(0.000000,163.000000) scale(0.100000,-0.100000)"
fill="#000000" stroke="none">
<path d="M685 1532 c-13 -14 -2 -47 25 -72 24 -23 27 -29 14 -34 -23 -9 -65 4
-100 31 -38 28 -91 46 -99 32 -4 -5 -26 -9 -49 -9 -28 0 -52 -7 -67 -19 l-24
-19 30 -33 c17 -17 54 -47 84 -67 l54 -35 -29 -15 c-36 -18 -35 -17 -38 -34
-1 -7 -9 -24 -18 -38 -21 -32 -33 -80 -20 -80 5 0 6 -16 2 -40 -10 -54 -2 -85
28 -116 l27 -26 -20 -33 c-11 -18 -44 -52 -74 -76 -91 -73 -108 -128 -76 -237
21 -70 62 -114 144 -155 36 -18 77 -42 89 -53 12 -10 35 -21 50 -24 24 -5 27
-10 30 -53 2 -27 -4 -72 -12 -100 -8 -28 -11 -56 -7 -60 8 -8 66 -18 196 -33
35 -4 62 -1 89 10 21 9 55 16 75 16 45 0 61 14 61 56 0 17 7 37 15 44 8 7 25
45 36 84 24 79 34 96 58 96 69 0 171 74 171 124 0 16 10 41 21 58 32 45 20 76
-61 160 -38 40 -70 80 -70 89 0 24 -61 80 -126 115 -31 16 -57 34 -58 40 0 5
31 12 69 15 85 7 163 42 172 77 3 13 0 42 -6 63 -7 22 -9 49 -6 60 4 11 0 30
-9 44 -20 30 -64 33 -107 8 -27 -16 -29 -16 -52 5 -30 29 -61 30 -52 2 4 -11
2 -20 -4 -20 -15 0 -31 35 -31 69 0 33 -33 63 -72 66 -14 1 -24 12 -32 36 -8
26 -22 39 -56 56 -41 19 -153 36 -165 25z m285 -207 c0 -8 -2 -15 -4 -15 -2 0
-6 7 -10 15 -3 8 -1 15 4 15 6 0 10 -7 10 -15z m-219 -51 c35 7 39 -11 5 -20
-32 -8 -66 12 -66 39 l0 21 16 -23 c13 -18 23 -22 45 -17z m-21 26 c0 -5 -5
-10 -11 -10 -5 0 -7 5 -4 10 3 6 8 10 11 10 2 0 4 -4 4 -10z m358 -2 c18 -18
15 -28 -8 -28 -13 0 -20 7 -20 20 0 23 10 26 28 8z m-391 -119 c7 -9 34 -29
60 -45 27 -15 51 -31 54 -36 3 -6 9 -9 13 -9 19 3 26 0 26 -10 0 -12 -19 -7
-110 28 -77 30 -109 52 -110 75 0 31 44 30 67 -3z m251 -25 c22 -15 52 -63 52
-84 0 -17 -39 -50 -59 -50 -10 0 -29 9 -42 19 l-24 19 23 25 c19 20 23 32 17
56 -7 35 0 38 33 15z m-146 -89 c69 -8 103 -35 42 -34 -63 1 -153 20 -165 36
-10 11 -6 13 27 9 21 -3 65 -8 96 -11z m246 -90 c-3 -3 -9 2 -12 12 -6 14 -5
15 5 6 7 -7 10 -15 7 -18z m2 -65 c0 -5 -2 -10 -4 -10 -3 0 -8 5 -11 10 -3 6
-1 10 4 10 6 0 11 -4 11 -10z m-540 -20 c0 -5 -5 -10 -11 -10 -5 0 -7 5 -4 10
3 6 8 10 11 10 2 0 4 -4 4 -10z m-14 -28 c6 -4 11 -32 10 -62 -1 -52 -2 -55
-28 -58 -27 -3 -28 -5 -28 -64 0 -50 4 -64 22 -79 32 -29 6 -23 -41 9 -53 36
-68 58 -73 107 -2 33 0 40 17 43 37 7 56 33 49 65 -5 22 -3 28 7 25 32 -10 22
-89 -13 -106 -23 -10 -23 -11 -2 -11 35 -1 72 97 44 114 -5 3 -10 10 -10 16 0
11 30 12 46 1z m99 -39 c0 -43 2 -48 22 -48 35 -1 32 -20 -3 -23 -39 -4 -64
19 -64 58 0 40 9 60 29 60 13 0 16 -10 16 -47z m462 -11 c-3 -12 -5 -11 -6 6
0 12 -6 22 -12 22 -5 0 -7 5 -3 11 9 16 27 -16 21 -39z m-643 3 c5 -15 -18
-45 -35 -45 -13 0 -11 34 3 48 16 16 25 15 32 -3z m346 -31 c0 -29 -3 -34 -17
-31 -10 3 -31 8 -46 11 -40 9 -32 39 13 47 19 4 38 7 43 8 4 0 7 -15 7 -35z
m44 -26 c-3 -4 -9 -8 -15 -8 -11 0 -12 53 -2 64 9 9 25 -43 17 -56z m204 47
c2 -2 2 -9 0 -17 -2 -9 -10 -6 -26 10 l-23 24 23 -7 c13 -4 25 -9 26 -10z
m-128 -41 c0 -16 -16 -19 -25 -4 -8 13 4 32 16 25 5 -4 9 -13 9 -21z m87 -11
c-7 -7 -57 8 -57 18 0 4 14 3 31 -3 16 -6 28 -12 26 -15z m113 7 c13 -8 13
-10 -2 -10 -9 0 -20 5 -23 10 -8 13 5 13 25 0z m-357 -448 c-6 -27 -5 -131 1
-141 8 -12 1 -13 -31 -5 -13 4 -21 10 -18 14 3 5 1 11 -5 15 -15 9 -12 57 5
79 9 12 12 30 8 50 -6 31 -6 31 18 14 13 -9 23 -21 22 -26z"/>
<path d="M690 780 c0 -5 9 -10 19 -10 11 0 23 5 26 10 4 6 -5 10 -19 10 -14 0
-26 -4 -26 -10z"/>
</g>
</svg>
